<svg width="151" height="120" viewBox="0 0 151 120" fill="none" xmlns="http://www.w3.org/2000/svg">
<path d="M147.923 104.229H137.492L140.243 71.3781C140.313 70.5419 140.029 69.7148 139.462 69.0973C138.894 68.4798 138.093 68.1283 137.254 68.1283H135.359V49.275C135.359 47.6181 134.016 46.2755 132.359 46.2755H104.534L104.797 41.5527H106.383C108.04 41.5527 109.383 40.2101 109.383 38.5532V30.0006C109.383 28.3436 108.04 27.0011 106.383 27.0011H99.1202L104.259 14.0272L126.277 5.82698C127.829 5.24908 128.619 3.52136 128.041 1.96922C127.464 0.416678 125.736 -0.373191 124.183 0.205114L100.914 8.87088C100.118 9.16723 99.485 9.78753 99.1726 10.5774L92.6671 27.0011H54.0084C52.3514 27.0011 51.0088 28.3436 51.0088 30.0006V38.5532C51.0088 40.2101 52.3514 41.5527 54.0084 41.5527H55.6105L56.2465 51.8697C53.8016 51.3314 51.2503 51.0399 48.6231 51.0399C32.0409 51.0399 18.3544 62.4164 16.683 76.9576H13.7146C12.0576 76.9576 10.715 78.3002 10.715 79.9571V88.8964C10.715 90.2714 11.6405 91.4272 12.9023 91.7815C12.676 92.5498 12.5524 93.3645 12.5524 94.2087C12.5524 97.2878 14.1802 99.975 16.587 101.407C16.655 102.355 16.7798 103.296 16.9486 104.229H3.04647C1.38949 104.229 0.046875 105.572 0.046875 107.228V116.988C0.046875 118.645 1.38949 119.988 3.04647 119.988H147.923C149.58 119.988 150.922 118.645 150.922 116.988V107.228C150.922 105.572 149.58 104.229 147.923 104.229ZM86.7891 71.3789L89.5443 104.229H80.2612C80.4496 103.291 80.5808 102.359 80.6531 101.411C83.0624 99.9798 84.6934 97.2906 84.6934 94.2091C84.6934 93.3645 84.5654 92.5514 84.3362 91.7835C85.6009 91.4316 86.5303 90.2746 86.5303 88.8968V79.9575C86.5303 78.3006 85.1877 76.958 83.5308 76.958H80.5532C79.3777 66.7329 72.2659 58.0719 62.3776 53.8334L61.6205 41.5535H98.7891L98.5259 46.2763H94.6732C93.0163 46.2763 91.6737 47.6189 91.6737 49.2758V68.1291H89.7787C88.9396 68.1291 88.1381 68.4806 87.5706 69.0981C87.0023 69.7152 86.7187 70.5427 86.7891 71.3789ZM133.242 74.1277C130.8 77.1264 123.734 80.1979 113.516 80.1979C103.298 80.1979 96.2306 77.1264 93.789 74.1277H133.242ZM97.6728 68.1287V52.2749H101.094V68.1287H97.6728ZM113.516 86.1965C121.563 86.1965 128.557 84.4739 133.363 81.6472L131.472 104.229H95.5635L93.671 81.6504C98.4763 84.4759 105.471 86.1965 113.516 86.1965ZM125.939 52.2749H129.36V68.1287H125.939V52.2749ZM116.519 52.2749H119.94V68.1287H116.519V52.2749ZM107.092 52.2749H110.513V68.1287H107.092V52.2749ZM57.0079 33.0009H103.384V35.5545H57.0079V33.0009ZM48.6231 57.0393C61.8633 57.0393 72.8338 65.733 74.5132 76.958H22.7322C24.4116 65.733 35.3821 57.0393 48.6231 57.0393ZM16.7142 85.8969V82.9566H80.5312V85.8969H16.7142ZM20.5497 96.5079C19.4474 96.5079 18.5516 95.4769 18.5516 94.2091C18.5516 92.9409 19.4474 91.9095 20.5497 91.9095H76.6965C77.7979 91.9095 78.6938 92.9409 78.6938 94.2091C78.6938 95.4769 77.7979 96.5079 76.6965 96.5079H20.5497ZM74.4916 102.507C74.3948 103.075 74.2664 103.646 74.108 104.229H23.0674C22.9314 103.66 22.8174 103.086 22.7314 102.507H74.4916ZM144.923 113.989H6.04606V110.228H144.923V113.989Z" fill="white"/>
<path d="M48.6167 65.964C47.8285 65.964 47.057 65.644 46.4967 65.0841C45.9367 64.5282 45.6172 63.7523 45.6172 62.9644C45.6172 62.1761 45.9367 61.4006 46.4967 60.8447C47.0566 60.2848 47.8285 59.9648 48.6167 59.9648C49.4082 59.9648 50.1797 60.2848 50.74 60.8447C51.2964 61.4006 51.6163 62.1761 51.6163 62.9644C51.6163 63.7523 51.296 64.5282 50.74 65.0841C50.1797 65.644 49.4082 65.964 48.6167 65.964Z" fill="white"/>
<path d="M36.6558 70.5694C35.8675 70.5694 35.096 70.2495 34.5357 69.6896C33.9758 69.1336 33.6562 68.3618 33.6562 67.5699C33.6562 66.782 33.9758 66.0101 34.5357 65.4502C35.0956 64.8903 35.8675 64.5703 36.6558 64.5703C37.4473 64.5703 38.2196 64.8903 38.7791 65.4502C39.3354 66.0061 39.6554 66.782 39.6554 67.5699C39.6554 68.3614 39.335 69.1336 38.7791 69.6896C38.2196 70.2495 37.4469 70.5694 36.6558 70.5694Z" fill="white"/>
<path d="M60.5777 70.5694C59.7858 70.5694 59.0139 70.2495 58.4536 69.6896C57.8973 69.1336 57.5781 68.3618 57.5781 67.5699C57.5781 66.782 57.8977 66.0101 58.4536 65.4502C59.0135 64.8903 59.7854 64.5703 60.5777 64.5703C61.3652 64.5703 62.1367 64.8903 62.697 65.4502C63.2533 66.0101 63.5772 66.782 63.5772 67.5699C63.5772 68.3614 63.2529 69.1336 62.697 69.6896C62.1367 70.2495 61.3652 70.5694 60.5777 70.5694Z" fill="white"/>
</svg>
