<svg width="61" height="123" viewBox="0 0 61 123" fill="none" xmlns="http://www.w3.org/2000/svg">
<path d="M48.1691 57.6832C44.5105 52.6478 40.9064 48.4098 38.5695 45.7844C42.0497 44.3919 43.8765 40.454 42.656 36.8348C42.2646 35.6746 41.5987 34.6608 40.7251 33.8588C42.7377 31.9994 43.5903 29.0425 42.656 26.2717C42.2592 25.0958 41.5794 24.0714 40.6884 23.2642C42.7278 21.4072 43.5965 18.4303 42.656 15.642C42.0469 13.835 40.7775 12.3764 39.0825 11.5341C38.3464 11.1682 37.5684 10.9384 36.7775 10.8452V2.7531C36.7775 1.56919 35.8282 0.609375 34.6566 0.609375C33.485 0.609375 32.5357 1.56919 32.5357 2.7531V11.5789L25.6288 13.959V2.7531C25.6288 1.56919 24.6795 0.609375 23.5079 0.609375C22.3363 0.609375 21.387 1.56919 21.387 2.7531V15.4208L19.9202 15.9261C18.1327 16.5421 16.6891 17.8249 15.8563 19.5381C15.0233 21.2514 14.9002 23.1899 15.5096 24.9966C15.9061 26.1722 16.5856 27.1964 17.4761 28.0033C16.813 28.6055 16.2613 29.3344 15.8561 30.1679C15.023 31.8811 14.9 33.8196 15.5094 35.6263C15.9081 36.8085 16.5876 37.8129 17.4436 38.5984C16.7955 39.1949 16.2545 39.9118 15.8561 40.731C15.023 42.4442 14.9 44.3827 15.5094 46.1894C16.1173 47.9927 17.3828 49.4485 19.0724 50.2917C17.0358 52.757 15.1115 55.2325 13.3322 57.6832C4.82779 69.3879 0.515625 79.3337 0.515625 87.2443C0.515625 106.505 14.079 122.174 30.7505 122.174C47.4203 122.174 60.9823 106.505 60.9823 87.2443C60.9826 79.3348 56.6716 69.3891 48.1691 57.6832ZM33.422 47.5674V65.2557C33.422 66.7443 32.2238 67.9554 30.748 67.9554C29.2752 67.9554 28.0774 66.7443 28.0774 65.2557V49.4093L33.422 47.5674ZM24.4394 68.1066C25.5207 70.5418 27.9414 72.2431 30.7508 72.2431C33.5611 72.2431 35.9831 70.5384 37.0631 68.0991C42.7445 76.2084 45.9351 83.0426 45.9351 87.2443C45.9351 98.1178 39.1235 106.964 30.7511 106.964C22.377 106.964 15.5639 98.1178 15.5639 87.2443C15.5637 83.0543 18.7557 76.2224 24.4394 68.1066ZM36.8765 41.8474L23.1148 46.5896C22.3994 46.8357 21.6322 46.7863 20.9541 46.4493C20.2762 46.1123 19.7684 45.5289 19.5243 44.8057C19.2806 44.0829 19.3298 43.3074 19.6629 42.622C19.996 41.9366 20.5737 41.4235 21.2886 41.1769L35.2312 36.3806C35.4736 36.3146 35.7202 36.2803 35.9662 36.2803C36.3929 36.2803 36.8174 36.3792 37.2113 36.575C37.8891 36.912 38.397 37.4957 38.641 38.2185C39.1444 39.7106 38.3529 41.3386 36.8765 41.8474ZM19.5246 34.2426C19.2808 33.5198 19.33 32.7443 19.6632 32.0589C19.9963 31.3735 20.574 30.8604 21.2889 30.6137L35.0508 25.8716C35.3506 25.7684 35.6588 25.7172 35.9662 25.7172C36.3929 25.7172 36.8174 25.8161 37.2113 26.0119C37.8891 26.3489 38.397 26.9323 38.641 27.6551C39.1441 29.1474 38.3526 30.7755 36.8765 31.2843L22.9689 36.0685C21.5346 36.4781 20.0113 35.6861 19.5246 34.2426ZM19.6632 21.4292C19.9966 20.7438 20.574 20.2307 21.2889 19.984L35.0508 15.2418C35.3506 15.1387 35.6588 15.0875 35.9662 15.0875C36.3929 15.0875 36.8174 15.1864 37.2113 15.3822C37.8891 15.7192 38.397 16.3028 38.641 17.0257C39.1441 18.518 38.3526 20.1461 36.8765 20.6546L23.1148 25.3968C22.3994 25.6432 21.6322 25.5934 20.9541 25.2564C20.276 24.9197 19.7684 24.3361 19.5243 23.6129C19.2803 22.8898 19.33 22.1146 19.6632 21.4292ZM30.7508 117.886C16.4179 117.886 4.75766 104.141 4.75766 87.2443C4.75766 80.2663 8.79297 71.1744 16.7519 60.2205C18.879 57.2908 21.3118 54.2093 23.8353 51.2429V61.7151C12.9671 76.0483 11.3219 83.8515 11.3219 87.244C11.3219 100.482 20.0376 111.251 30.7508 111.251C41.4624 111.251 50.1766 100.482 50.1766 87.244C50.1766 83.8423 48.5314 76.0266 37.6634 61.7048V51.2418C39.7142 53.653 42.2346 56.7589 44.75 60.2205C52.7067 71.1749 56.7409 80.2669 56.7409 87.244C56.7409 104.14 45.082 117.886 30.7508 117.886Z" fill="white"/>
</svg>
