<svg width="116" height="123" viewBox="0 0 116 123" fill="none" xmlns="http://www.w3.org/2000/svg">
<path d="M21.2882 53.04H60.1882C61.1955 53.04 62.0116 52.1777 62.0116 51.1138C62.0116 50.0498 61.1955 49.1875 60.1882 49.1875H21.2882C20.2809 49.1875 19.4648 50.0498 19.4648 51.1138C19.4648 52.1777 20.2809 53.04 21.2882 53.04Z" fill="white"/>
<path d="M21.2882 42.7783H43.1694C44.1767 42.7783 44.9928 41.916 44.9928 40.852C44.9928 39.7881 44.1767 38.9258 43.1694 38.9258H21.2882C20.2809 38.9258 19.4648 39.7881 19.4648 40.852C19.4648 41.916 20.2809 42.7783 21.2882 42.7783Z" fill="white"/>
<path d="M26.1508 95.2979H89.3633C93.0498 95.2979 96.0493 92.1292 96.0493 88.2348V66.5316C96.0493 65.2912 95.74 64.0695 95.1543 62.9998C94.6506 62.0789 93.535 61.7634 92.6632 62.2962C91.7912 62.8283 91.493 64.0068 91.9972 64.9278C92.2624 65.4124 92.4025 65.9672 92.4025 66.5319V88.235C92.4025 90.0054 91.0392 91.4456 89.3633 91.4456H26.1508C24.4749 91.4456 23.1116 90.0054 23.1116 88.235V66.5319C23.1116 64.7614 24.4749 63.3213 26.1508 63.3213H60.1882C61.1955 63.3213 62.0116 62.4589 62.0116 61.395C62.0116 60.3309 61.1955 59.4688 60.1882 59.4688H26.1508C22.4643 59.4688 19.4648 62.6374 19.4648 66.5319V88.235C19.4648 92.1292 22.4643 95.2979 26.1508 95.2979Z" fill="white"/>
<path d="M107.863 98.6229C108.243 97.4155 108.449 96.1247 108.449 94.7842V38.2786C108.449 31.5517 103.268 26.0786 96.9002 26.0786H86.5675V7.45766C86.5673 3.5632 83.5678 0.394531 79.8811 0.394531H75.0186C71.3321 0.394531 68.3327 3.5632 68.3327 7.45766V26.0786H19.1C12.7324 26.0786 7.5516 31.5517 7.5516 38.2786V94.7839C7.5516 96.1247 7.7573 97.4153 8.13714 98.6226C3.51258 100.25 0.257812 104.849 0.257812 110.195C0.257812 116.921 5.43859 122.395 11.8063 122.395H104.194C110.561 122.395 115.742 116.921 115.742 110.195C115.742 104.849 112.487 100.25 107.863 98.6229ZM71.9797 7.45766C71.9797 5.68723 73.343 4.24706 75.0188 4.24706H79.8814C81.5572 4.24706 82.9205 5.68723 82.9205 7.45766V10.6683H71.9799V7.45766H71.9797ZM82.9203 14.5208V59.4683H79.2735V14.5208H82.9203ZM71.9797 14.5208H75.6265V59.4683H71.9797V14.5208ZM71.9797 63.3208H82.9203V68.2437C82.9203 68.3817 82.877 68.5184 82.7987 68.629L77.9362 75.4779C77.7774 75.7014 77.5635 75.7348 77.4499 75.7348C77.3364 75.7348 77.1224 75.7014 76.9636 75.4779L72.1013 68.6295C72.0228 68.5184 71.9795 68.3817 71.9795 68.2437V63.3208H71.9797ZM11.1984 38.2786C11.1984 33.6758 14.743 29.9312 19.1 29.9312H68.3329V38.9206H55.3258C54.3185 38.9206 53.5024 39.7829 53.5024 40.8468C53.5024 41.9108 54.3185 42.7731 55.3258 42.7731H68.3329V68.2435C68.3329 69.2092 68.6349 70.1666 69.1839 70.9403L74.0465 77.7892C74.8576 78.932 76.0981 79.5871 77.4503 79.5871C78.8023 79.5871 80.0431 78.9318 80.8542 77.7892L85.7169 70.9398C86.2657 70.1669 86.5677 69.2092 86.5677 68.2435V53.0468H94.2262C95.2336 53.0468 96.0496 52.1845 96.0496 51.1206C96.0496 50.0566 95.2333 49.1943 94.2262 49.1943H86.5677V42.7733H94.2262C95.2336 42.7733 96.0496 41.911 96.0496 40.8471C96.0496 39.7831 95.2333 38.9208 94.2262 38.9208H86.5677V29.9314H96.9004C101.257 29.9314 104.802 33.676 104.802 38.2789V94.7842C104.802 99.387 101.257 103.132 96.9004 103.132H19.1C14.743 103.132 11.1984 99.387 11.1984 94.7842V38.2786ZM104.194 118.542H11.8063C7.4492 118.542 3.90459 114.797 3.90459 110.195C3.90459 106.321 6.40172 103.019 9.86512 102.102C11.9738 105.065 15.3285 106.984 19.1 106.984H96.9C100.671 106.984 104.026 105.065 106.135 102.102C109.598 103.019 112.095 106.321 112.095 110.195C112.095 114.797 108.551 118.542 104.194 118.542Z" fill="white"/>
<path d="M53.3829 110.84H53.1398C52.1325 110.84 51.3164 111.702 51.3164 112.766C51.3164 113.83 52.1325 114.692 53.1398 114.692H53.3829C54.3903 114.692 55.2063 113.83 55.2063 112.766C55.2063 111.702 54.3903 110.84 53.3829 110.84Z" fill="white"/>
<path d="M98.1165 110.84H61.6476C60.6403 110.84 59.8242 111.702 59.8242 112.766C59.8242 113.83 60.6403 114.692 61.6476 114.692H98.1163C99.1236 114.692 99.9397 113.83 99.9397 112.766C99.9399 111.702 99.1236 110.84 98.1165 110.84Z" fill="white"/>
<path d="M45.8439 110.84H45.6007C44.5934 110.84 43.7773 111.702 43.7773 112.766C43.7773 113.83 44.5934 114.692 45.6007 114.692H45.8439C46.8512 114.692 47.6673 113.83 47.6673 112.766C47.6673 111.702 46.8512 110.84 45.8439 110.84Z" fill="white"/>
<path d="M37.336 110.84H17.8859C16.8786 110.84 16.0625 111.702 16.0625 112.766C16.0625 113.83 16.8786 114.692 17.8859 114.692H37.336C38.3433 114.692 39.1594 113.83 39.1594 112.766C39.1594 111.702 38.3433 110.84 37.336 110.84Z" fill="white"/>
</svg>
