<svg width="120" height="121" viewBox="0 0 120 121" fill="none" xmlns="http://www.w3.org/2000/svg">
<g clip-path="url(#clip0_2329_5674)">
<path d="M35.1278 20.5184C35.6911 19.9551 36.0076 19.1911 36.0076 18.3944C36.0076 17.5978 35.6911 16.8337 35.1278 16.2704C34.5645 15.7071 33.8004 15.3906 33.0038 15.3906C32.2071 15.3906 31.4431 15.7071 30.8798 16.2704L21.0038 26.1524L17.1278 22.2704C16.8489 21.9915 16.5177 21.7702 16.1533 21.6193C15.7889 21.4683 15.3983 21.3906 15.0038 21.3906C14.6093 21.3906 14.2187 21.4683 13.8543 21.6193C13.4899 21.7702 13.1587 21.9915 12.8798 22.2704C12.6009 22.5493 12.3796 22.8805 12.2287 23.2449C12.0777 23.6094 12 24 12 24.3944C12 24.7889 12.0777 25.1795 12.2287 25.5439C12.3796 25.9084 12.6009 26.2395 12.8798 26.5184L18.8798 32.5184C19.1585 32.7978 19.4895 33.0195 19.854 33.1707C20.2185 33.3219 20.6092 33.3998 21.0038 33.3998C21.3984 33.3998 21.7891 33.3219 22.1536 33.1707C22.5181 33.0195 22.8491 32.7978 23.1278 32.5184L35.1278 20.5184ZM51.0038 24.3944C50.2081 24.3944 49.4451 24.7105 48.8825 25.2731C48.3199 25.8357 48.0038 26.5988 48.0038 27.3944C48.0038 28.1901 48.3199 28.9531 48.8825 29.5157C49.4451 30.0783 50.2081 30.3944 51.0038 30.3944H105.004C105.799 30.3944 106.562 30.0783 107.125 29.5157C107.688 28.9531 108.004 28.1901 108.004 27.3944C108.004 26.5988 107.688 25.8357 107.125 25.2731C106.562 24.7105 105.799 24.3944 105.004 24.3944H51.0038ZM51.0038 54.3944C50.2081 54.3944 49.4451 54.7105 48.8825 55.2731C48.3199 55.8357 48.0038 56.5988 48.0038 57.3944C48.0038 58.1901 48.3199 58.9531 48.8825 59.5157C49.4451 60.0783 50.2081 60.3944 51.0038 60.3944H105.004C105.799 60.3944 106.562 60.0783 107.125 59.5157C107.688 58.9531 108.004 58.1901 108.004 57.3944C108.004 56.5988 107.688 55.8357 107.125 55.2731C106.562 54.7105 105.799 54.3944 105.004 54.3944H51.0038ZM60.1358 90.3944C60.3197 88.3644 60.6913 86.3558 61.2458 84.3944H51.0038C50.2081 84.3944 49.4451 84.7105 48.8825 85.2731C48.3199 85.8357 48.0038 86.5988 48.0038 87.3944C48.0038 88.1901 48.3199 88.9531 48.8825 89.5157C49.4451 90.0783 50.2081 90.3944 51.0038 90.3944H60.1358ZM35.1278 53.5184C35.4067 53.2395 35.628 52.9084 35.7789 52.5439C35.9299 52.1795 36.0076 51.7889 36.0076 51.3944C36.0076 51 35.9299 50.6093 35.7789 50.2449C35.628 49.8805 35.4067 49.5493 35.1278 49.2704C34.8489 48.9915 34.5177 48.7702 34.1533 48.6193C33.7889 48.4683 33.3983 48.3906 33.0038 48.3906C32.6093 48.3906 32.2187 48.4683 31.8543 48.6193C31.4899 48.7702 31.1587 48.9915 30.8798 49.2704L21.0038 59.1524L17.1278 55.2704C16.5645 54.7071 15.8004 54.3906 15.0038 54.3906C14.2071 54.3906 13.4431 54.7071 12.8798 55.2704C12.3165 55.8337 12 56.5978 12 57.3944C12 58.1911 12.3165 58.9551 12.8798 59.5184L18.8798 65.5184C19.1585 65.7978 19.4895 66.0194 19.854 66.1707C20.2185 66.3219 20.6092 66.3998 21.0038 66.3998C21.3984 66.3998 21.7891 66.3219 22.1536 66.1707C22.5181 66.0194 22.8491 65.7978 23.1278 65.5184L35.1278 53.5184ZM35.1278 79.2704C35.4072 79.5491 35.6288 79.8801 35.7801 80.2446C35.9313 80.6091 36.0091 80.9998 36.0091 81.3944C36.0091 81.789 35.9313 82.1797 35.7801 82.5442C35.6288 82.9087 35.4072 83.2397 35.1278 83.5184L23.1278 95.5184C22.8491 95.7978 22.5181 96.0194 22.1536 96.1707C21.7891 96.3219 21.3984 96.3998 21.0038 96.3998C20.6092 96.3998 20.2185 96.3219 19.854 96.1707C19.4895 96.0194 19.1585 95.7978 18.8798 95.5184L12.8798 89.5184C12.3165 88.9551 12 88.1911 12 87.3944C12 86.5978 12.3165 85.8337 12.8798 85.2704C13.4431 84.7071 14.2071 84.3906 15.0038 84.3906C15.8004 84.3906 16.5645 84.7071 17.1278 85.2704L21.0038 89.1524L30.8798 79.2704C31.1585 78.991 31.4895 78.7694 31.854 78.6181C32.2185 78.4669 32.6092 78.3891 33.0038 78.3891C33.3984 78.3891 33.7891 78.4669 34.1536 78.6181C34.5181 78.7694 34.8491 78.991 35.1278 79.2704ZM120.004 93.3944C120.004 100.555 117.159 107.423 112.096 112.486C107.032 117.55 100.165 120.394 93.0038 120.394C85.8429 120.394 78.9754 117.55 73.9119 112.486C68.8484 107.423 66.0038 100.555 66.0038 93.3944C66.0038 86.2336 68.8484 79.366 73.9119 74.3025C78.9754 69.2391 85.8429 66.3944 93.0038 66.3944C100.165 66.3944 107.032 69.2391 112.096 74.3025C117.159 79.366 120.004 86.2336 120.004 93.3944ZM96.0038 81.3944C96.0038 80.5988 95.6877 79.8357 95.1251 79.2731C94.5625 78.7105 93.7994 78.3944 93.0038 78.3944C92.2081 78.3944 91.4451 78.7105 90.8825 79.2731C90.3199 79.8357 90.0038 80.5988 90.0038 81.3944V90.3944H81.0038C80.2081 90.3944 79.4451 90.7105 78.8825 91.2731C78.3199 91.8357 78.0038 92.5988 78.0038 93.3944C78.0038 94.1901 78.3199 94.9531 78.8825 95.5157C79.4451 96.0783 80.2081 96.3944 81.0038 96.3944H90.0038V105.394C90.0038 106.19 90.3199 106.953 90.8825 107.516C91.4451 108.078 92.2081 108.394 93.0038 108.394C93.7994 108.394 94.5625 108.078 95.1251 107.516C95.6877 106.953 96.0038 106.19 96.0038 105.394V96.3944H105.004C105.799 96.3944 106.562 96.0783 107.125 95.5157C107.688 94.9531 108.004 94.1901 108.004 93.3944C108.004 92.5988 107.688 91.8357 107.125 91.2731C106.562 90.7105 105.799 90.3944 105.004 90.3944H96.0038V81.3944Z" fill="white"/>
</g>
<defs>
<clipPath id="clip0_2329_5674">
<rect width="120" height="120" fill="white" transform="translate(0 0.390625)"/>
</clipPath>
</defs>
</svg>
