<svg width="75" height="59" viewBox="0 0 75 59" fill="none" xmlns="http://www.w3.org/2000/svg">
<path d="M64.9569 0.121094H9.91081C7.45635 0.121094 5.10241 1.09612 3.36685 2.83169C1.63128 4.56726 0.65625 6.92119 0.65625 9.37565V49.6145C0.65625 52.0689 1.63128 54.4229 3.36685 56.1584C5.10241 57.894 7.45635 58.869 9.91081 58.869H64.9569C67.4114 58.869 69.7653 57.894 71.5009 56.1584C73.2364 54.4229 74.2115 52.0689 74.2115 49.6145V9.37565C74.2115 6.92119 73.2364 4.56726 71.5009 2.83169C69.7653 1.09612 67.4114 0.121094 64.9569 0.121094ZM9.91081 3.82292H64.9569C66.3581 3.81888 67.7082 4.34861 68.7328 5.30442C69.7574 6.26023 70.3795 7.57036 70.4726 8.96845C61.3291 13.8549 52.1486 18.7042 42.9681 23.5906C41.7261 24.369 40.412 25.026 39.0442 25.5526C37.9703 25.7645 36.8636 25.7454 35.7977 25.4965C34.7317 25.2476 33.7311 24.7745 32.8621 24.1089C27.6055 21.3325 22.3489 18.5192 17.1294 15.7428C12.9093 13.5217 8.61517 11.2636 4.39509 9.00547C4.48094 7.60143 5.09963 6.28314 6.12477 5.31992C7.14992 4.3567 8.50414 3.82124 9.91081 3.82292ZM70.5096 49.6145C70.5096 51.0871 69.9246 52.4995 68.8833 53.5408C67.8419 54.5822 66.4296 55.1672 64.9569 55.1672H9.91081C8.43813 55.1672 7.02577 54.5822 5.98443 53.5408C4.94309 52.4995 4.35807 51.0871 4.35807 49.6145V13.207C13.0944 17.7973 21.7937 22.4616 30.53 27.0889C32.0908 28.0458 33.7712 28.7926 35.5274 29.31C38.0979 29.7279 40.7324 29.1878 42.9311 27.7922C48.2987 24.9788 53.6293 22.1284 58.997 19.315C62.8469 17.242 66.6597 15.243 70.5096 13.207V49.6145Z" fill="white"/>
</svg>
