<svg width="89" height="89" viewBox="0 0 89 89" fill="none" xmlns="http://www.w3.org/2000/svg">
<g clip-path="url(#clip0_2244_5721)">
<path fill-rule="evenodd" clip-rule="evenodd" d="M44.9062 6.63635C22.7046 6.63635 4.73058 24.5187 4.73058 46.5407C4.73058 62.7107 14.4216 76.6257 28.3696 82.8847C29.8289 83.541 31.2553 83.2807 32.3699 82.4447C32.9864 81.9646 33.4833 81.3484 33.8217 80.6442C34.1601 79.9399 34.3309 79.1669 34.3206 78.3857V76.2957L29.3449 75.621C29.3081 75.6161 29.2714 75.6099 29.2349 75.6027C26.4923 75.0674 24.6406 74.103 23.2839 72.7134C22.1436 71.5437 21.4469 70.143 20.8566 68.955L20.6513 68.5407C20.1056 67.4026 19.5098 66.2893 18.8656 65.204C18.3706 64.4194 17.9856 64.016 17.6042 63.763C16.6362 63.1214 15.7049 62.0324 15.7049 60.672C15.7016 60.2805 15.7854 59.8931 15.9503 59.538C16.1152 59.1828 16.357 58.8688 16.6583 58.6187C17.2268 58.1686 17.9353 57.9324 18.6602 57.9514C19.4743 57.9514 20.2406 58.2007 20.8786 58.4867C21.5312 58.78 22.1803 59.1687 22.7852 59.572C24.2593 60.5547 25.7113 61.717 26.9396 63.1507C28.2192 64.6394 29.1249 65.5854 30.4889 65.7797C31.6109 65.941 32.7549 65.9447 33.6459 65.9044C33.7697 65.1989 33.974 64.51 34.2546 63.851C33.1664 63.5971 32.0929 63.2837 31.0389 62.9124C28.6409 62.0617 25.9679 60.738 24.1712 58.7324C22.1986 56.525 20.9776 54.556 20.2956 52.2534C19.6319 50.0094 19.5219 47.5784 19.5219 44.5864C19.5219 40.003 21.5056 36.142 22.9943 34.0924C22.4223 32.2979 22.0112 30.4561 21.7659 28.5887C21.6034 27.4111 21.6047 26.2166 21.7696 25.0394C21.9529 23.965 22.4112 22.645 23.6176 21.8494C24.7799 21.0757 26.1439 21.1087 27.2073 21.3067C28.3109 21.5157 29.4586 21.974 30.5146 22.4984C32.2342 23.349 33.9429 24.4857 35.2226 25.45C37.4299 24.801 41.3349 23.965 44.8659 23.888H44.9466C48.4813 23.965 52.2103 24.801 54.3626 25.4464C55.6459 24.4857 57.3509 23.3454 59.0669 22.4984C60.1229 21.974 61.2669 21.5157 62.3743 21.3067C63.4376 21.1087 64.8016 21.0757 65.9676 21.8457C67.1702 22.645 67.6322 23.965 67.8119 25.0394C67.9989 26.1577 67.9549 27.408 67.8119 28.5887C67.5677 30.4559 67.1578 32.2977 66.5872 34.0924C68.0759 36.1457 70.0596 40.0067 70.0596 44.5864C70.0596 47.5784 69.9496 50.0094 69.2896 52.2497C68.6039 54.5597 67.3829 56.525 65.4102 58.7324C63.6136 60.738 60.9406 62.0617 58.5426 62.9124C57.2697 63.3598 55.9689 63.7235 54.6486 64.0014C55.0996 65.3654 55.2609 66.469 55.2609 67.1034V78.4334C55.2609 80.1567 56.0639 81.627 57.2043 82.485C58.3116 83.3247 59.7342 83.585 61.1936 82.947C75.2736 76.743 85.0782 62.7914 85.0782 46.537C85.0782 24.5187 67.1116 6.63635 44.9062 6.63635ZM35.6516 69.5747H35.6369L35.6076 69.582L35.5013 69.5967C34.9566 69.6607 34.41 69.7059 33.8623 69.7324C32.5573 69.8004 31.2488 69.7476 29.9536 69.5747C27.0532 69.164 25.2896 67.1107 24.1493 65.776L24.0393 65.6514C23.6664 65.2188 23.2659 64.811 22.8403 64.4304C23.2179 65.127 23.6103 65.9044 24.0319 66.7404L24.0686 66.8137L24.2556 67.195C24.8973 68.471 25.3189 69.3217 26.0193 70.033C26.7013 70.7297 27.7646 71.4044 29.9132 71.8297L36.4912 72.7207C36.9507 72.7829 37.3719 73.0097 37.6767 73.359C37.9816 73.7083 38.1492 74.1564 38.1486 74.62V78.3857C38.1486 81.319 36.7736 83.9334 34.6652 85.5174C33.5583 86.3632 32.2415 86.8908 30.8568 87.0432C29.4721 87.1957 28.072 86.9673 26.8076 86.3827C11.5469 79.537 0.90625 64.2947 0.90625 46.5407C0.90625 22.37 20.6219 2.80469 44.9062 2.80469C69.1906 2.80469 88.9062 22.37 88.9062 46.5407C88.9062 64.3864 78.1299 79.669 62.7373 86.456C61.4718 87.0296 60.0742 87.2483 58.6939 87.0887C57.3137 86.9292 56.0029 86.3975 54.9016 85.5504C53.8127 84.712 52.9328 83.6328 52.331 82.3974C51.7292 81.162 51.4218 79.8039 51.4329 78.4297V67.0997C51.4329 66.843 51.2533 65.3617 50.2523 63.3707C50.1141 63.0946 50.0445 62.7893 50.0493 62.4806C50.0542 62.1719 50.1333 61.869 50.2801 61.5974C50.4269 61.3258 50.6369 61.0935 50.8925 60.9203C51.1481 60.7471 51.4416 60.6381 51.7483 60.6024C53.6281 60.3667 55.477 59.9291 57.2629 59.297C59.4409 58.527 61.3952 57.471 62.5576 56.173C64.2846 54.2444 65.1463 52.763 65.6193 51.1607C66.1106 49.4997 66.2353 47.5674 66.2353 44.5864C66.2353 40.4027 64.0353 36.8864 63.0233 35.7534C62.7935 35.4973 62.6369 35.1842 62.5698 34.8468C62.5027 34.5094 62.5276 34.1602 62.6419 33.8357C63.2937 31.9883 63.7544 30.079 64.0169 28.1377C64.1343 27.1294 64.1416 26.286 64.0389 25.6774C64.0159 25.4548 63.9486 25.2391 63.8409 25.043C63.5885 24.9993 63.3296 25.0106 63.0819 25.076C62.4586 25.1934 61.6629 25.4867 60.7609 25.934C58.9642 26.8214 57.0943 28.134 55.9356 29.0727C55.6801 29.28 55.3753 29.4176 55.0508 29.4723C54.7263 29.5269 54.3932 29.4966 54.0839 29.3844C51.1151 28.4132 48.0271 27.8543 44.9062 27.7234C41.2139 27.8114 36.9533 28.86 35.4976 29.3844C35.1883 29.4966 34.8552 29.5269 34.5307 29.4723C34.2063 29.4176 33.9014 29.28 33.6459 29.0727C32.1475 27.8663 30.5308 26.8148 28.8206 25.934C28.0862 25.5484 27.3048 25.2599 26.4959 25.076C26.2494 25.0111 25.9918 24.9999 25.7406 25.043C25.6328 25.2391 25.5655 25.4548 25.5426 25.6774C25.4399 26.286 25.4473 27.1294 25.5646 28.1377C25.8288 30.0787 26.2895 31.9878 26.9396 33.8357C27.1706 34.4957 27.0276 35.229 26.5583 35.7534C25.5462 36.8864 23.3463 40.4027 23.3463 44.5864C23.3463 47.5637 23.4709 49.4997 23.9623 51.1607C24.4389 52.763 25.2969 54.2407 27.0203 56.173C28.1863 57.471 30.1369 58.527 32.3186 59.297C34.1034 59.9286 35.9511 60.3663 37.8296 60.6024C38.2161 60.6438 38.5808 60.802 38.8752 61.0558C39.1696 61.3096 39.3797 61.6471 39.4776 62.0233C39.5755 62.3994 39.5566 62.7965 39.4233 63.1616C39.2901 63.5268 39.0488 63.8427 38.7316 64.0674C38.1266 64.5 37.7269 65.2774 37.5033 66.1757C37.3878 66.6382 37.319 67.1111 37.2979 67.5874V67.657C37.3026 68.1219 37.1382 68.5727 36.8354 68.9254C36.5325 69.2782 36.1118 69.5089 35.6516 69.5747Z" fill="white"/>
</g>
<defs>
<clipPath id="clip0_2244_5721">
<rect width="88" height="88" fill="white" transform="translate(0.90625 0.96875)"/>
</clipPath>
</defs>
</svg>
