<svg width="96" height="97" viewBox="0 0 96 97" fill="none" xmlns="http://www.w3.org/2000/svg">
<path d="M87.7516 11.3244C86.8906 10.6107 85.8525 10.1433 84.7474 9.97177C83.6422 9.80024 82.5113 9.93095 81.4744 10.35L9.92888 39.2326C8.77274 39.7077 7.78844 40.5232 7.10666 41.5708C6.42487 42.6185 6.07783 43.8487 6.11163 45.0982C6.14542 46.3477 6.55844 47.5574 7.29586 48.5666C8.03328 49.5759 9.06022 50.337 10.2403 50.7489L25.6779 56.1077L34.0436 83.7644C34.0596 83.8203 34.1115 83.8562 34.1354 83.9081C34.2216 84.1288 34.3475 84.3318 34.5068 84.5071C34.7489 84.7774 35.0613 84.9751 35.4093 85.0781C35.4492 85.0941 35.4771 85.13 35.5171 85.138H35.541L35.553 85.142C35.8619 85.2085 36.183 85.192 36.4834 85.0941C36.5154 85.0861 36.5473 85.0861 36.5832 85.0741C36.8717 84.9729 37.1328 84.8061 37.3459 84.587C37.3699 84.559 37.4098 84.555 37.4338 84.5311L49.4652 71.2498L67.0231 84.8465C68.0893 85.6811 69.4031 86.1323 70.7567 86.1323C73.6877 86.1323 76.2154 84.0798 76.8184 81.2167L89.8441 17.2542C90.065 16.1684 89.9871 15.0429 89.6186 13.9979C89.2501 12.9529 88.6048 12.0275 87.7516 11.3204V11.3244ZM38.4081 61.3587L35.585 75.0832L29.695 55.6046L58.905 40.3906L38.9512 60.3484C38.6749 60.6246 38.486 60.9759 38.4081 61.3587ZM72.9051 80.4141C72.8301 80.7762 72.6633 81.1129 72.4206 81.392C72.178 81.671 71.8676 81.8829 71.5194 82.0074C71.1797 82.1381 70.8118 82.1782 70.4519 82.1235C70.0921 82.0689 69.7526 81.9215 69.4669 81.6959L50.4475 66.9651C50.0499 66.6582 49.5513 66.5124 49.051 66.5568C48.5506 66.6012 48.0855 66.8326 47.7481 67.2047L39.3745 76.4329L42.1936 62.7483L70.9005 34.0375C71.2367 33.7002 71.4412 33.2539 71.4772 32.779C71.5133 32.3041 71.3783 31.8321 71.0969 31.4479C70.8154 31.0638 70.4059 30.7929 69.9423 30.6842C69.4786 30.5754 68.9914 30.636 68.5685 30.8549L27.1873 52.41L11.5461 46.9714C11.1314 46.8344 10.7697 46.5716 10.5113 46.2194C10.253 45.8673 10.1108 45.4434 10.1046 45.0067C10.0847 44.5662 10.2024 44.1303 10.4414 43.7597C10.6804 43.389 11.0288 43.1019 11.4383 42.9383L82.9718 14.0557C83.3384 13.9 83.7412 13.8496 84.1348 13.9102C84.5285 13.9709 84.8973 14.1402 85.2 14.3991C85.501 14.6426 85.7283 14.965 85.8567 15.3303C85.985 15.6956 86.0093 16.0893 85.9268 16.4676L72.9051 80.4181V80.4141Z" fill="white"/>
</svg>
