<svg width="80" height="80" viewBox="0 0 80 80" fill="none" xmlns="http://www.w3.org/2000/svg">
<path d="M62.9224 47.2773L50.4224 41.0273C50.0532 40.8437 49.6421 40.7608 49.2306 40.7868C48.8191 40.8129 48.4218 40.9471 48.0787 41.1758L41.9537 45.2578C38.8529 43.6704 36.3301 41.1477 34.7427 38.0469L38.8287 31.9258C39.0574 31.5827 39.1916 31.1853 39.2176 30.7738C39.2437 30.3623 39.1607 29.9512 38.9771 29.582L32.7271 17.082C32.5328 16.691 32.2331 16.3619 31.8617 16.1321C31.4904 15.9023 31.0623 15.7808 30.6256 15.7813C26.6887 15.7813 22.9132 17.3451 20.1294 20.1289C17.3457 22.9126 15.7818 26.6882 15.7818 30.625C15.7921 39.5314 19.3348 48.0701 25.6326 54.3679C31.9304 60.6658 40.4691 64.2084 49.3756 64.2188C53.3124 64.2188 57.0879 62.6549 59.8717 59.8711C62.6554 57.0874 64.2193 53.3118 64.2193 49.375C64.2194 48.9394 64.0982 48.5123 63.8691 48.1418C63.64 47.7713 63.3122 47.4719 62.9224 47.2773ZM49.3756 59.5312C41.712 59.5219 34.365 56.4735 28.946 51.0545C23.5271 45.6356 20.4786 38.2886 20.4693 30.625C20.4695 28.1738 21.3562 25.8054 22.9658 23.9567C24.5754 22.1081 26.7993 20.9039 29.2271 20.5664L34.1724 30.457L30.1138 36.543C29.9006 36.864 29.7698 37.2326 29.733 37.6162C29.6962 37.9998 29.7546 38.3865 29.9029 38.7422C32.0581 43.8662 36.1343 47.9425 41.2584 50.0977C41.614 50.246 42.0008 50.3044 42.3844 50.2676C42.768 50.2308 43.1366 50.1 43.4576 49.8867L49.5435 45.8281L59.4342 50.7734C59.0966 53.2013 57.8925 55.4251 56.0438 57.0347C54.1952 58.6443 51.8267 59.531 49.3756 59.5312ZM40.0006 0.156251C33.0935 0.154801 26.3047 1.94894 20.3001 5.36264C14.2956 8.77634 9.28161 13.6923 5.7501 19.6284C2.21859 25.5644 0.29086 32.3165 0.156031 39.2222C0.0212018 46.128 1.68391 52.9502 4.98102 59.0195L0.44196 72.6406C0.120618 73.6042 0.0739842 74.6382 0.307285 75.6268C0.540585 76.6154 1.0446 77.5195 1.76284 78.2377C2.48108 78.956 3.38515 79.46 4.37374 79.6933C5.36233 79.9266 6.39636 79.8799 7.35993 79.5586L20.981 75.0195C26.313 77.913 32.2353 79.5508 38.2963 79.8079C44.3574 80.0651 50.3971 78.9348 55.955 76.5033C61.5128 74.0718 66.4421 70.4032 70.3669 65.7774C74.2917 61.1516 77.1083 55.6906 78.6021 49.8109C80.0959 43.9312 80.2273 37.788 78.9864 31.8498C77.7455 25.9116 75.165 20.3352 71.4417 15.5457C67.7183 10.7562 62.9505 6.88021 57.5017 4.21319C52.0529 1.54618 46.067 0.158597 40.0006 0.156251ZM40.0006 75.1562C33.8206 75.1577 27.7495 73.5301 22.399 70.4375C22.0423 70.2325 21.6385 70.1235 21.2271 70.1211C20.9749 70.1226 20.7245 70.1634 20.4849 70.2422L5.87946 75.1094C5.74181 75.1553 5.59409 75.1619 5.45286 75.1286C5.31163 75.0953 5.18248 75.0233 5.07988 74.9207C4.97727 74.8181 4.90527 74.6889 4.87194 74.5477C4.83861 74.4065 4.84527 74.2587 4.89118 74.1211L9.75837 59.5312C9.86368 59.216 9.90072 58.8819 9.86705 58.5513C9.83337 58.2206 9.72975 57.9008 9.56306 57.6133C5.68515 50.9144 4.1264 43.123 5.12865 35.4479C6.13089 27.7727 9.63809 20.6428 15.1061 15.1644C20.5742 9.68594 27.6974 6.16522 35.3706 5.14841C43.0439 4.13161 50.8382 5.67556 57.5444 9.54075C64.2506 13.4059 69.4938 19.3763 72.4605 26.5255C75.4271 33.6748 75.9515 41.6032 73.9522 49.0809C71.9528 56.5585 67.5416 63.1674 61.4028 67.8821C55.264 72.5967 47.7409 75.1537 40.0006 75.1562Z" fill="white"/>
</svg>
