<svg width="33" height="33" viewBox="0 0 33 33" fill="none" xmlns="http://www.w3.org/2000/svg">
<g clip-path="url(#clip0_2213_3461)">
<path d="M16.6328 32.25C25.4694 32.25 32.6328 25.0866 32.6328 16.25C32.6328 7.41344 25.4694 0.25 16.6328 0.25C7.79626 0.25 0.632812 7.41344 0.632812 16.25C0.632812 25.0866 7.79626 32.25 16.6328 32.25Z" fill="#F0F0F0"/>
<path d="M3.936 6.50781C2.67919 8.143 1.7315 10.0277 1.17969 12.0751H9.50331L3.936 6.50781Z" fill="#0052B4"/>
<path d="M32.0735 12.0751C31.5217 10.0277 30.5739 8.143 29.3172 6.50781L23.75 12.0751H32.0735Z" fill="#0052B4"/>
<path d="M1.17969 20.4219C1.73156 22.4692 2.67925 24.3539 3.936 25.9891L9.50313 20.4219H1.17969Z" fill="#0052B4"/>
<path d="M26.3797 3.55716C24.7446 2.30034 22.8599 1.35266 20.8125 0.800781V9.12434L26.3797 3.55716Z" fill="#0052B4"/>
<path d="M6.88281 28.9421C8.518 30.1989 10.4027 31.1466 12.4501 31.6985V23.375L6.88281 28.9421Z" fill="#0052B4"/>
<path d="M12.45 0.800781C10.4026 1.35266 8.51794 2.30034 6.88281 3.55709L12.45 9.12428V0.800781Z" fill="#0052B4"/>
<path d="M20.8125 31.6985C22.8599 31.1466 24.7446 30.1989 26.3797 28.9422L20.8125 23.375V31.6985Z" fill="#0052B4"/>
<path d="M23.75 20.4219L29.3172 25.9891C30.5739 24.354 31.5217 22.4693 32.0735 20.4219H23.75Z" fill="#0052B4"/>
<path d="M32.4974 14.1631H18.7199H18.7198V0.385438C18.0366 0.2965 17.3401 0.25 16.6328 0.25C15.9254 0.25 15.229 0.2965 14.5459 0.385438V14.1629V14.163H0.76825C0.679313 14.8462 0.632812 15.5427 0.632812 16.25C0.632812 16.9574 0.679313 17.6538 0.76825 18.3369H14.5457H14.5458V32.1146C15.229 32.2035 15.9254 32.25 16.6328 32.25C17.3401 32.25 18.0366 32.2036 18.7197 32.1146V18.3371V18.337H32.4974C32.5863 17.6538 32.6328 16.9574 32.6328 16.25C32.6328 15.5427 32.5863 14.8462 32.4974 14.1631Z" fill="#D80027"/>
<path d="M20.8125 20.4258L27.9523 27.5656C28.2806 27.2373 28.5939 26.8942 28.8927 26.5384L22.7801 20.4258H20.8125V20.4258Z" fill="#D80027"/>
<path d="M12.4523 20.4258H12.4522L5.3125 27.5655C5.64075 27.8938 5.98394 28.2071 6.33969 28.506L12.4523 22.3932V20.4258Z" fill="#D80027"/>
<path d="M12.4552 12.0774V12.0773L5.3155 4.9375C4.98713 5.26575 4.67388 5.60894 4.375 5.96469L10.4877 12.0774H12.4552V12.0774Z" fill="#D80027"/>
<path d="M20.8125 12.0764L27.9523 4.93653C27.6241 4.60816 27.2809 4.29491 26.9251 3.99609L20.8125 10.1088V12.0764Z" fill="#D80027"/>
</g>
<defs>
<clipPath id="clip0_2213_3461">
<rect width="32" height="32" fill="white" transform="translate(0.632812 0.25)"/>
</clipPath>
</defs>
</svg>
