<svg width="33" height="32" viewBox="0 0 33 32" fill="none" xmlns="http://www.w3.org/2000/svg">
<g clip-path="url(#clip0_2159_9083)">
<path d="M16.2812 32C25.1178 32 32.2812 24.8366 32.2812 16C32.2812 7.16344 25.1178 0 16.2812 0C7.44469 0 0.28125 7.16344 0.28125 16C0.28125 24.8366 7.44469 32 16.2812 32Z" fill="#F0F0F0"/>
<path d="M31.2861 21.564C31.9292 19.8307 32.2812 17.9559 32.2812 15.9988C32.2812 14.0417 31.9292 12.1669 31.2861 10.4336H1.27644C0.633313 12.1669 0.28125 14.0417 0.28125 15.9988C0.28125 17.9559 0.633313 19.8307 1.27644 21.564L16.2812 22.9553L31.2861 21.564Z" fill="#0052B4"/>
<path d="M16.2782 32.0012C23.1577 32.0012 29.0224 27.6592 31.2831 21.5664H1.27344C3.53413 27.6592 9.39881 32.0012 16.2782 32.0012Z" fill="#D80027"/>
</g>
<defs>
<clipPath id="clip0_2159_9083">
<rect width="32" height="32" fill="white" transform="translate(0.28125)"/>
</clipPath>
</defs>
</svg>
